<svg width="49" height="49" viewBox="0 0 49 49" fill="none" xmlns="http://www.w3.org/2000/svg">
<path d="M0.136719 24.418C-0.19322 11.1481 11.0568 -2.02197 24.0566 0.387695C36.3966 2.64769 47.2967 13.098 48.1367 24.418C49.1367 37.658 37.1367 45.838 24.1367 48.418C12.1368 50.8278 0.416717 40.7679 0.136719 24.418ZM9.13281 14.7549C8.71478 14.7549 8.50586 14.928 8.50586 15.2734V15.3818C8.50586 15.5818 8.69632 15.9097 9.07812 16.3643C9.47812 16.8188 9.64204 17.2822 9.56934 17.7549L7.49707 31.1191C7.42434 31.5737 7.21456 32.0279 6.86914 32.4824C6.54186 32.9188 6.37793 33.2558 6.37793 33.4922V33.6006C6.37793 33.9461 6.59683 34.1191 7.0332 34.1191H10.415C10.8513 34.1191 11.0693 33.946 11.0693 33.6006V33.4922C11.0693 33.2922 10.888 32.9643 10.5244 32.5098C10.1608 32.0552 10.0152 31.5919 10.0879 31.1191L11.5605 21.1641L16.333 33.3281C16.5693 33.8372 16.9514 34.0917 17.4785 34.0918C17.9513 34.0918 18.2791 33.8281 18.4609 33.3008L22.6338 21.6006L24.2695 31.1191C24.3604 31.5919 24.224 32.0644 23.8604 32.5371C23.4968 32.9916 23.3154 33.3104 23.3154 33.4922V33.6006C23.3154 33.6162 23.3184 33.6316 23.3193 33.6465V33.6553C23.3193 33.9643 23.5283 34.1191 23.9463 34.1191H31.4473C34.5744 34.1191 37.102 33.2372 39.0293 31.4736C40.9747 29.71 41.9473 27.373 41.9473 24.4639C41.9472 21.6276 40.8739 19.3006 38.7285 17.4824C36.583 15.6643 33.7287 14.7549 30.165 14.7549H23.3975C22.7066 14.7549 22.2331 15.1002 21.9785 15.791L18.1602 27.3008L14.2061 15.7363C13.9697 15.082 13.4786 14.755 12.7334 14.7549H9.13281ZM28.2578 16.3369C30.4033 16.3369 34.0014 17.3731 35.4561 19.2822C36.9288 21.1914 37.665 23.5008 37.665 26.21C37.665 28.1553 37.1201 29.6829 36.0293 30.792C34.9566 31.901 33.5654 32.455 31.8564 32.4551L31.0127 32.4814C30.3765 32.4814 29.8763 32.2816 29.5127 31.8818C29.4068 31.7536 29.3302 31.6122 29.2686 31.457C29.2315 31.3444 29.2012 31.2318 29.1787 31.1191L28.9971 30.1562C28.9961 30.1495 28.9951 30.1425 28.9941 30.1357L26.6494 17.4824C26.6494 17.4587 26.6507 17.4351 26.6514 17.4121C26.676 17.1293 26.7829 16.8498 26.9736 16.5732C27.1539 16.4155 27.4097 16.3369 27.7402 16.3369H28.2578Z" fill="white"/>
</svg>
